PathFileType	4	(X/Y/Z)	3_coords_data.trc
DataRate	CameraRate	NumFrames	NumMarkers	Units	OrigDataRate	OrigDataStartFrame	OrigNumFrames
30.0	30.0	7	21	m	30.0	51	71
Frame#	Time	THUMB_TIP	THUMB_IP	THUMB_MCP	THUMB_CMC	INDEX_TIP	INDEX_DIP	INDEX_PIP	INDEX_MCP	MIDDLE_TIP	MIDDLE_DIP	MIDDLE_PIP	MIDDLE_MCP	RING_TIP	RING_DIP	RING_PIP	RING_MCP	PINKY_TIP	PINKY_DIP	PINKY_PIP	PINKY_MCP	WRIST
X1	Y1	Z1	X2	Y2	Z2	X3	Y3	Z3	X4	Y4	Z4	X5	Y5	Z5	X6	Y6	Z6	X7	Y7	Z7	X8	Y8	Z8	X9	Y9	Z9	X10	Y10	Z10	X11	Y11	Z11	X12	Y12	Z12	X13	Y13	Z13	X14	Y14	Z14	X15	Y15	Z15	X16	Y16	Z16	X17	Y17	Z17	X18	Y18	Z18	X19	Y19	Z19	X20	Y20	Z20	X21	Y21	Z21
49	1.6666666666666594	0.554624435681566	0.006713591392503049	-0.10159610425276897	0.5343210741121379	0.005452080217304367	-0.11228170664738951	0.5055850771734749	-0.005530982531803175	-0.10754516649762641	0.4829640329690198	-0.017910511486754155	-0.0711456387266014	0.5903331886725828	0.025208563389179983	-0.10064920394670729	0.5747801619595951	0.034469962641106466	-0.10122352438122614	0.5509869276626695	0.04258704036904071	-0.1011536398315232	0.5101998741926939	0.033121221518677024	-0.09337863907721783	0.5626635542561622	0.007459265826395334	-0.07463139809612082	0.5689995091051177	0.024334808717417666	-0.07638403276577355	0.5532778948999431	0.04869641392515678	-0.0793425101589462	0.5100574904686842	0.039876148990803606	-0.07224691375792106	0.5548748559718825	0.016422839104297204	-0.05872205080258183	0.5616527121565131	0.03306726781138758	-0.057299497269302474	0.5493885995013573	0.05473789223208758	-0.05690509012102568	0.5120931859375668	0.03968293000936718	-0.052767328216529436	0.5766900858848261	0.03209713625373034	-0.038684413469135204	0.5637081103244866	0.0414622894147898	-0.032621228099987465	0.5432315921291488	0.04537916759964322	-0.03013480760437176	0.5111087989541011	0.02949407161166895	-0.034218107138566545	0.4622830810018609	-0.023011742144276925	-0.051989820119430985
50	1.6999999999999926	0.5578520210809264	0.011416766511570753	-0.09589653024888539	0.5381914837596494	0.00805657760906675	-0.10730584235690346	0.5101390181260687	-0.0048728120324686985	-0.10347047335586484	0.48443829541619776	-0.01789612070067148	-0.06941527869303779	0.5909358392990429	0.02845461250106962	-0.09031039594161094	0.5755917000744579	0.03773182113917317	-0.0928580990918321	0.5517729431175713	0.04529798907822802	-0.09558385637133854	0.5109780496468141	0.03375226578848323	-0.09157025020901655	0.5658953292604336	0.014306986868155347	-0.06759465646451168	0.5697923027976006	0.03187551359856189	-0.06963437844890369	0.5512611430856232	0.053847815861753134	-0.07445346580899065	0.5084844399280358	0.04145450417578633	-0.07088871989628831	0.5551093902772077	0.022821740520444278	-0.052091742091097126	0.5595925930475529	0.04024274885696866	-0.05090457678722354	0.544908117162834	0.06029383688168577	-0.05248572068205426	0.5087801825723566	0.04217912237714727	-0.051323698889981034	0.5717254835533057	0.03785110038084638	-0.03165522460042716	0.558148498157989	0.04724821377860622	-0.02714304914229182	0.5374182800946733	0.05052974834873036	-0.0265938598193233	0.5065691736521032	0.03273420731175802	-0.03229778845636075	0.4622830810018609	-0.023011742144276925	-0.051989820119430985
51	1.7333333333333258	0.5605100027224657	0.01577834104027076	-0.08924681479016089	0.5418594564905697	0.010372720638524902	-0.10153243212605984	0.5145355034952257	-0.004277435695894449	-0.09877661789333164	0.48586686903016074	-0.01785326333569015	-0.06741268475663706	0.5906972226700612	0.03196458860458706	-0.08020415344921594	0.5757120256214043	0.041119667254805425	-0.0846345489531459	0.5521202366051321	0.047924488290327805	-0.09003193115993902	0.5117550220637488	0.03435347523937471	-0.08969554774926841	0.5681471211176565	0.021578701120128163	-0.060416010591006486	0.5694488317994671	0.03945954355356085	-0.06298136108784136	0.5487198975210588	0.05875919720096645	-0.069854802931024	0.506956739145591	0.042887614463425594	-0.0695730496506635	0.554448136394561	0.02931575744648751	-0.04553750404255141	0.5566049726912041	0.04720022313316574	-0.04483469233838264	0.5399685407028314	0.06536369531475195	-0.04850857148786422	0.5054128728263535	0.0444297752311682	-0.05005700345107697	0.5662494398660243	0.04365568652588259	-0.024806720843003227	0.5520507752135526	0.05279052887189939	-0.021986689389265707	0.5312484425676769	0.05523510604625215	-0.02343548817756072	0.5018764690473849	0.03560272186602986	-0.030697727083258658	0.46228308100186083	-0.023011742144276925	-0.051989820119430985
52	1.7666666666666588	0.5624309594176022	0.019824185627319135	-0.08240923087964669	0.5449641712975515	0.01247502176100701	-0.09540542660129334	0.5184033416718444	-0.0036706945228038856	-0.0937750354590062	0.48712276811806376	-0.017715841639598273	-0.06524172929560984	0.5896951929130001	0.03564883142033082	-0.07067831922027776	0.5751822154803354	0.04455886443305812	-0.07684150003468507	0.5520443670968118	0.050487740496609534	-0.084683580996019	0.5125027531460321	0.03496691674070229	-0.08771687789965085	0.5693272290611004	0.029037999909062306	-0.053459750942741746	0.568150535925804	0.046803946327146795	-0.05677434611185328	0.5457933494494451	0.06323400040683658	-0.06569729886303319	0.5054741768970159	0.04417237833274823	-0.06837438862470757	0.5530144094601953	0.03565941863624522	-0.039384365798848325	0.5529045892885962	0.05368681287968058	-0.039352801235361834	0.5348226534799043	0.06980921258898021	-0.04512270626265036	0.5020811848713586	0.04641183542740501	-0.049031645928930584	0.5603496833113104	0.0493715152090608	-0.018568206087550332	0.5456080441583607	0.058000783244684495	-0.01746375678876802	0.5249355246105343	0.05944885260213273	-0.020834520749764912	0.49721251515358383	0.038091434336137486	-0.0295625722311193	0.4622830810018609	-0.023011742144276925	-0.051989820119430985
53	1.7999999999999918	0.5636257570425613	0.023392583897158037	-0.07595025547079357	0.5473552591933915	0.014421128462805188	-0.08947001460805562	0.5215916140601558	-0.003031769113819305	-0.08879848230908946	0.48808606867410076	-0.017491967787342855	-0.06314363709994353	0.5880715203431075	0.039345968248802876	-0.062060557816484146	0.5741053412227215	0.04793411569787076	-0.06975403324507709	0.5515802653098019	0.05291475441235538	-0.07974523067646572	0.5131576137713209	0.03556267267307889	-0.08576529729286975	0.5694616774698473	0.03628610907815788	-0.04705641849314629	0.5659996733690026	0.05357865239622739	-0.051177398133769175	0.5426927560521461	0.06723589540830188	-0.062117090473792214	0.5041220036139948	0.04528146324651705	-0.06725984127549753	0.5509963204179239	0.04173897636852608	-0.033797378240171344	0.5487933732346193	0.05961185129340474	-0.034638428552113465	0.5297114585285492	0.07362101042699265	-0.04237173124372429	0.49890214867018245	0.048101961509895985	-0.04822710505057792	0.5542715498848063	0.05471892786009935	-0.0130919303575871	0.5391243339839433	0.06267276462813332	-0.013638127318507609	0.5187645456055885	0.06304364331827284	-0.01875217514638397	0.49276553790965	0.040148147551995916	-0.02878867470763194	0.4622830810018609	-0.023011742144276925	-0.051989820119430985
54	1.8333333333333253	0.5641415927866442	0.02667789053616121	-0.0701842727680218	0.5489582200776116	0.01638959472755519	-0.08402682175775728	0.5239782363968837	-0.002179464301693246	-0.08412910606182461	0.48877392680925535	-0.017112870071687047	-0.06116086758850822	0.5860726343608528	0.043012196415213144	-0.05449839820520211	0.5726511075021959	0.05120797859057169	-0.0634812580680982	0.5508273061997955	0.0552344313293488	-0.07529308299296641	0.5137039706453006	0.036180380990748606	-0.08380408863286956	0.568832379964398	0.04317158502422447	-0.04122934284610005	0.5633968338010351	0.05966946409574492	-0.04635524023557602	0.5396215006912266	0.07069127460245206	-0.05910917212624728	0.502921510725024	0.0462238661145562	-0.06622286170107955	0.54872952720655	0.04733749180581159	-0.028988478352504815	0.5446151956997201	0.06480057064370304	-0.030752891499559537	0.5249519178470897	0.07674648230240855	-0.0402834044832695	0.496020838386072	0.04948125417920768	-0.04765366978447158	0.5483916882840303	0.059479442761436574	-0.008577446883697215	0.5329891986933877	0.06666692742060076	-0.010603126691669629	0.5130815456551957	0.06597846848523481	-0.017238139412477343	0.48876893441318237	0.04177654669418829	-0.02837579478579491	0.4622830810018609	-0.023011742144276925	-0.051989820119430985
55	1.8666666666666587	0.5640852186458263	0.02988321250102699	-0.0653762539641507	0.549810065120466	0.01850991226374521	-0.0793357680509677	0.5255755693592838	-0.0010113405281600985	-0.07999143918482199	0.4891985442666052	-0.016564970601556372	-0.05938351262860145	0.5838351986930406	0.04655940657202884	-0.04809148426982704	0.5709303036696611	0.05434521252144353	-0.05813364091835696	0.5498200510427811	0.0574518728525617	-0.07142708774814374	0.5140687326765137	0.03683433016986859	-0.08193405033497683	0.5676803860527406	0.04955471197294925	-0.036087480560302226	0.5605946477204935	0.06501832543838126	-0.04230591853769086	0.5367211814240179	0.07360545270060215	-0.056649153959779874	0.5018741076026088	0.04701215301969075	-0.06528777532933255	0.5463960201698714	0.052381507620838264	-0.024975619442938635	0.5406150190221237	0.06923154935720732	-0.027742588761952708	0.5207013267298725	0.0792790936749036	-0.038818314086890265	0.49352401604037255	0.05056991006409839	-0.0472975471941631	0.5430138884508748	0.06365468962301346	-0.005048344420168466	0.5274724155391994	0.07002713652040748	-0.008342967353911934	0.5080989062921872	0.068321403929136	-0.016253064368678127	0.4853716392948717	0.0430299896119507	-0.02828216024780439	0.46228308100186083	-0.023011742144276925	-0.051989820119430985
